<svg id="Capa_2" data-name="Capa 2" xmlns="http://www.w3.org/2000/svg" viewBox="0 0 221.14 194.12"><defs><style>.cls-1,.cls-2,.cls-3{fill:none;stroke-miterlimit:10;}.cls-1{stroke:#000;}.cls-2,.cls-3{stroke:#fff;}.cls-2{stroke-width:6px;}</style></defs><title>logoprov</title><path class="cls-1" d="M153.7,282" transform="translate(-67.26 -23.9)"/><path class="cls-2" d="M75.19,214.77A1259.23,1259.23,0,0,1,72.1,35.36c-4.33-3.51,64.57-11.24,66.2-7.43-1.63-3.81-1.63,9.71,0,13-1.63-3.28,79.13-.47,77.59,2.7,1.54-3.17,1.27-19.5-.26-15.69,1.53-3.81,63.35,6.49,59.4,9.9,4-3.41,13.61,175.6,9.28,172" transform="translate(-67.26 -23.9)"/><path class="cls-2" d="M140.24,215c.07,3.55-3.08-173-3-169.64-.06-3.37-.14-7.88-.07-4.33" transform="translate(-67.26 -23.9)"/><path class="cls-2" d="M220,212.91c.06,3.77-3.16-188.68-3.09-184.91" transform="translate(-67.26 -23.9)"/><path class="cls-2" d="M70.49,50.52l66-9" transform="translate(-67.26 -23.9)"/><path class="cls-2" d="M218.26,43.7l58.59,5.59" transform="translate(-67.26 -23.9)"/><path class="cls-2" d="M197.71,213.81c.85,2,.85-25.63,0-39.9-.23-.78-1.3-1.91-3.09-3.24,7.24-10.57,11.36-15.64,8.8-25.33-.2-10-10.92-26.85-26.6-28.1-3-1.22-20.91,2.85-25.93,27.49-4,10.47,2.19,17,8.22,26.71-.73.24-5.23,3.78-4.33,3.4-.9.38-.9,39.22,0,37.32" transform="translate(-67.26 -23.9)"/><path class="cls-2" d="M140,155c-.14-.73,1.3-3.13,4.16-6.91-2.3-4.68-6.33-24.63,7.1-49.36,1-5.11,17.33-26.8,27.48-25.14,5.72,1.07,18.94,7.68,26.56,22.9,17.14,26,7.52,45.53,5.41,50.15,3.66,4.12,6,6.91,6.77,8" transform="translate(-67.26 -23.9)"/><path class="cls-2" d="M214.66,41.43" transform="translate(-67.26 -23.9)"/><path class="cls-2" d="M137.5,47.23a348.35,348.35,0,0,1,78.89,2.38" transform="translate(-67.26 -23.9)"/><path class="cls-3" d="M189.71,21.38" transform="translate(-67.26 -23.9)"/><path class="cls-1" d="M342.59,67.49" transform="translate(-67.26 -23.9)"/></svg>